<svg version="1.1" viewBox="0.0 0.0 610.4461942257218 645.7401574803149" fill="none" stroke="none" stroke-linecap="square" stroke-miterlimit="10" xmlns:xlink="http://www.w3.org/1999/xlink" xmlns="http://www.w3.org/2000/svg"><clipPath id="p.0"><path d="m0 0l610.44617 0l0 645.7402l-610.44617 0l0 -645.7402z" clip-rule="nonzero"/></clipPath><g clip-path="url(#p.0)"><path fill="#000000" fill-opacity="0.0" d="m0 0l610.44617 0l0 645.7402l-610.44617 0z" fill-rule="evenodd"/><path fill="#000000" fill-opacity="0.0" d="m18.532808 12.832021l576.0 0l0 605.92126l-576.0 0z" fill-rule="evenodd"/><path stroke="#000000" stroke-width="1.0" stroke-linejoin="round" stroke-linecap="butt" d="m18.532808 12.832021l576.0 0l0 605.92126l-576.0 0z" fill-rule="evenodd"/><path fill="#000000" fill-opacity="0.0" d="m52.750656 161.11023l511.84253 0l0 422.01575l-511.84253 0z" fill-rule="evenodd"/><path stroke="#000000" stroke-width="1.0" stroke-linejoin="round" stroke-linecap="butt" d="m52.750656 161.11023l511.84253 0l0 422.01575l-511.84253 0z" fill-rule="evenodd"/><path fill="#000000" fill-opacity="0.0" d="m264.00262 252.021l86.48819 0l0 42.015747l-86.48819 0z" fill-rule="evenodd"/><path fill="#000000" fill-opacity="0.0" d="m76.67191 265.11023l78.42519 0l0 42.015747l-78.42519 0z" fill-rule="evenodd"/><path stroke="#000000" stroke-width="1.0" stroke-linejoin="round" stroke-linecap="butt" d="m76.67191 265.11023l78.42519 0l0 42.015747l-78.42519 0z" fill-rule="evenodd"/><path fill="#000000" fill-opacity="0.0" d="m85.46358 265.66403l59.65355 0l0 42.015747l-59.65355 0z" fill-rule="evenodd"/><path fill="#000000" d="m112.46151 291.39655q-0.921875 0.765625 -1.765625 1.09375q-0.828125 0.3125 -1.796875 0.3125q-1.59375 0 -2.453125 -0.78125q-0.859375 -0.78125 -0.859375 -1.984375q0 -0.71875 0.328125 -1.296875q0.328125 -0.59375 0.84375 -0.9375q0.53125 -0.359375 1.1875 -0.546875q0.46875 -0.125 1.453125 -0.25q1.984375 -0.234375 2.921875 -0.5625q0.015625 -0.34375 0.015625 -0.421875q0 -1.0 -0.46875 -1.421875q-0.625 -0.546875 -1.875 -0.546875q-1.15625 0 -1.703125 0.40625q-0.546875 0.40625 -0.8125 1.421875l-1.609375 -0.21875q0.21875 -1.015625 0.71875 -1.640625q0.5 -0.640625 1.453125 -0.984375q0.953125 -0.34375 2.1875 -0.34375q1.25 0 2.015625 0.296875q0.78125 0.28125 1.140625 0.734375q0.375 0.4375 0.515625 1.109375q0.078125 0.421875 0.078125 1.515625l0 2.1875q0 2.28125 0.109375 2.890625q0.109375 0.59375 0.40625 1.15625l-1.703125 0q-0.265625 -0.515625 -0.328125 -1.1875zm-0.140625 -3.671875q-0.890625 0.375 -2.671875 0.625q-1.015625 0.140625 -1.4375 0.328125q-0.421875 0.1875 -0.65625 0.53125q-0.21875 0.34375 -0.21875 0.78125q0 0.65625 0.5 1.09375q0.5 0.4375 1.453125 0.4375q0.9375 0 1.671875 -0.40625q0.75 -0.421875 1.09375 -1.140625q0.265625 -0.5625 0.265625 -1.640625l0 -0.609375zm9.922592 4.859375l-1.640625 0l0 -10.453125q-0.59375 0.5625 -1.5625 1.140625q-0.953125 0.5625 -1.71875 0.84375l0 -1.59375q1.375 -0.640625 2.40625 -1.5625q1.03125 -0.921875 1.453125 -1.78125l1.0625 0l0 13.40625z" fill-rule="nonzero"/><path fill="#000000" fill-opacity="0.0" d="m172.67192 265.11023l78.425186 0l0 42.015747l-78.425186 0z" fill-rule="evenodd"/><path stroke="#000000" stroke-width="1.0" stroke-linejoin="round" stroke-linecap="butt" d="m172.67192 265.11023l78.425186 0l0 42.015747l-78.425186 0z" fill-rule="evenodd"/><path fill="#000000" fill-opacity="0.0" d="m181.46358 265.66403l59.65355 0l0 42.015747l-59.65355 0z" fill-rule="evenodd"/><path fill="#000000" d="m208.4615 291.39655q-0.921875 0.765625 -1.765625 1.09375q-0.828125 0.3125 -1.796875 0.3125q-1.59375 0 -2.453125 -0.78125q-0.859375 -0.78125 -0.859375 -1.984375q0 -0.71875 0.328125 -1.296875q0.328125 -0.59375 0.84375 -0.9375q0.53125 -0.359375 1.1875 -0.546875q0.46875 -0.125 1.453125 -0.25q1.984375 -0.234375 2.921875 -0.5625q0.015625 -0.34375 0.015625 -0.421875q0 -1.0 -0.46875 -1.421875q-0.625 -0.546875 -1.875 -0.546875q-1.15625 0 -1.703125 0.40625q-0.546875 0.40625 -0.8125 1.421875l-1.609375 -0.21875q0.21875 -1.015625 0.71875 -1.640625q0.5 -0.640625 1.453125 -0.984375q0.953125 -0.34375 2.1875 -0.34375q1.25 0 2.015625 0.296875q0.78125 0.28125 1.140625 0.734375q0.375 0.4375 0.515625 1.109375q0.078125 0.421875 0.078125 1.515625l0 2.1875q0 2.28125 0.109375 2.890625q0.109375 0.59375 0.40625 1.15625l-1.703125 0q-0.265625 -0.515625 -0.328125 -1.1875zm-0.140625 -3.671875q-0.890625 0.375 -2.671875 0.625q-1.015625 0.140625 -1.4375 0.328125q-0.421875 0.1875 -0.65625 0.53125q-0.21875 0.34375 -0.21875 0.78125q0 0.65625 0.5 1.09375q0.5 0.4375 1.453125 0.4375q0.9375 0 1.671875 -0.40625q0.75 -0.421875 1.09375 -1.140625q0.265625 -0.5625 0.265625 -1.640625l0 -0.609375zm12.360092 3.28125l0 1.578125l-8.828125 0q-0.015625 -0.59375 0.1875 -1.140625q0.34375 -0.90625 1.078125 -1.78125q0.75 -0.875 2.15625 -2.015625q2.171875 -1.78125 2.9375 -2.828125q0.765625 -1.046875 0.765625 -1.96875q0 -0.984375 -0.703125 -1.640625q-0.6875 -0.671875 -1.8125 -0.671875q-1.1875 0 -1.90625 0.71875q-0.703125 0.703125 -0.703125 1.953125l-1.6875 -0.171875q0.171875 -1.890625 1.296875 -2.875q1.140625 -0.984375 3.03125 -0.984375q1.921875 0 3.046875 1.0625q1.125 1.0625 1.125 2.640625q0 0.796875 -0.328125 1.578125q-0.328125 0.78125 -1.09375 1.640625q-0.75 0.84375 -2.53125 2.34375q-1.46875 1.234375 -1.890625 1.6875q-0.421875 0.4375 -0.6875 0.875l6.546875 0z" fill-rule="nonzero"/><path fill="#000000" fill-opacity="0.0" d="m268.6719 265.11023l78.4252 0l0 42.015747l-78.4252 0z" fill-rule="evenodd"/><path stroke="#000000" stroke-width="1.0" stroke-linejoin="round" stroke-linecap="butt" d="m268.6719 265.11023l78.4252 0l0 42.015747l-78.4252 0z" fill-rule="evenodd"/><path fill="#000000" fill-opacity="0.0" d="m277.4636 265.66403l59.653534 0l0 42.015747l-59.653534 0z" fill-rule="evenodd"/><path fill="#000000" d="m304.46152 291.39655q-0.921875 0.765625 -1.765625 1.09375q-0.828125 0.3125 -1.796875 0.3125q-1.59375 0 -2.453125 -0.78125q-0.859375 -0.78125 -0.859375 -1.984375q0 -0.71875 0.328125 -1.296875q0.328125 -0.59375 0.84375 -0.9375q0.53125 -0.359375 1.1875 -0.546875q0.46875 -0.125 1.453125 -0.25q1.984375 -0.234375 2.921875 -0.5625q0.015625 -0.34375 0.015625 -0.421875q0 -1.0 -0.46875 -1.421875q-0.625 -0.546875 -1.875 -0.546875q-1.15625 0 -1.703125 0.40625q-0.546875 0.40625 -0.8125 1.421875l-1.609375 -0.21875q0.21875 -1.015625 0.71875 -1.640625q0.5 -0.640625 1.453125 -0.984375q0.953125 -0.34375 2.1875 -0.34375q1.25 0 2.015625 0.296875q0.78125 0.28125 1.140625 0.734375q0.375 0.4375 0.515625 1.109375q0.078125 0.421875 0.078125 1.515625l0 2.1875q0 2.28125 0.109375 2.890625q0.109375 0.59375 0.40625 1.15625l-1.703125 0q-0.265625 -0.515625 -0.328125 -1.1875zm-0.140625 -3.671875q-0.890625 0.375 -2.671875 0.625q-1.015625 0.140625 -1.4375 0.328125q-0.421875 0.1875 -0.65625 0.53125q-0.21875 0.34375 -0.21875 0.78125q0 0.65625 0.5 1.09375q0.5 0.4375 1.453125 0.4375q0.9375 0 1.671875 -0.40625q0.75 -0.421875 1.09375 -1.140625q0.265625 -0.5625 0.265625 -1.640625l0 -0.609375zm3.750702 1.328125l1.640625 -0.21875q0.28125 1.40625 0.953125 2.015625q0.6875 0.609375 1.65625 0.609375q1.15625 0 1.953125 -0.796875q0.796875 -0.796875 0.796875 -1.984375q0 -1.125 -0.734375 -1.859375q-0.734375 -0.734375 -1.875 -0.734375q-0.46875 0 -1.15625 0.171875l0.1875 -1.4375q0.15625 0.015625 0.265625 0.015625q1.046875 0 1.875 -0.546875q0.84375 -0.546875 0.84375 -1.671875q0 -0.90625 -0.609375 -1.5q-0.609375 -0.59375 -1.578125 -0.59375q-0.953125 0 -1.59375 0.609375q-0.640625 0.59375 -0.8125 1.796875l-1.640625 -0.296875q0.296875 -1.640625 1.359375 -2.546875q1.0625 -0.90625 2.65625 -0.90625q1.09375 0 2.0 0.46875q0.921875 0.46875 1.40625 1.28125q0.5 0.8125 0.5 1.71875q0 0.859375 -0.46875 1.578125q-0.46875 0.703125 -1.375 1.125q1.1875 0.28125 1.84375 1.140625q0.65625 0.859375 0.65625 2.15625q0 1.734375 -1.28125 2.953125q-1.265625 1.21875 -3.21875 1.21875q-1.765625 0 -2.921875 -1.046875q-1.15625 -1.046875 -1.328125 -2.71875z" fill-rule="nonzero"/><path fill="#000000" fill-opacity="0.0" d="m364.6719 265.11023l78.4252 0l0 42.015747l-78.4252 0z" fill-rule="evenodd"/><path stroke="#000000" stroke-width="1.0" stroke-linejoin="round" stroke-linecap="butt" d="m364.6719 265.11023l78.4252 0l0 42.015747l-78.4252 0z" fill-rule="evenodd"/><path fill="#000000" fill-opacity="0.0" d="m373.4636 265.66403l59.653534 0l0 42.015747l-59.653534 0z" fill-rule="evenodd"/><path fill="#000000" d="m400.46152 291.39655q-0.921875 0.765625 -1.765625 1.09375q-0.828125 0.3125 -1.796875 0.3125q-1.59375 0 -2.453125 -0.78125q-0.859375 -0.78125 -0.859375 -1.984375q0 -0.71875 0.328125 -1.296875q0.328125 -0.59375 0.84375 -0.9375q0.53125 -0.359375 1.1875 -0.546875q0.46875 -0.125 1.453125 -0.25q1.984375 -0.234375 2.921875 -0.5625q0.015625 -0.34375 0.015625 -0.421875q0 -1.0 -0.46875 -1.421875q-0.625 -0.546875 -1.875 -0.546875q-1.15625 0 -1.703125 0.40625q-0.546875 0.40625 -0.8125 1.421875l-1.609375 -0.21875q0.21875 -1.015625 0.71875 -1.640625q0.5 -0.640625 1.453125 -0.984375q0.953125 -0.34375 2.1875 -0.34375q1.25 0 2.015625 0.296875q0.78125 0.28125 1.140625 0.734375q0.375 0.4375 0.515625 1.109375q0.078125 0.421875 0.078125 1.515625l0 2.1875q0 2.28125 0.109375 2.890625q0.109375 0.59375 0.40625 1.15625l-1.703125 0q-0.265625 -0.515625 -0.328125 -1.1875zm-0.140625 -3.671875q-0.890625 0.375 -2.671875 0.625q-1.015625 0.140625 -1.4375 0.328125q-0.421875 0.1875 -0.65625 0.53125q-0.21875 0.34375 -0.21875 0.78125q0 0.65625 0.5 1.09375q0.5 0.4375 1.453125 0.4375q0.9375 0 1.671875 -0.40625q0.75 -0.421875 1.09375 -1.140625q0.265625 -0.5625 0.265625 -1.640625l0 -0.609375zm9.000702 4.859375l0 -3.203125l-5.796875 0l0 -1.5l6.09375 -8.65625l1.34375 0l0 8.65625l1.796875 0l0 1.5l-1.796875 0l0 3.203125l-1.640625 0zm0 -4.703125l0 -6.015625l-4.1875 6.015625l4.1875 0z" fill-rule="nonzero"/><path fill="#000000" fill-opacity="0.0" d="m457.82043 265.11023l78.42517 0l0 42.015747l-78.42517 0z" fill-rule="evenodd"/><path stroke="#000000" stroke-width="1.0" stroke-linejoin="round" stroke-linecap="butt" d="m457.82043 265.11023l78.42517 0l0 42.015747l-78.42517 0z" fill-rule="evenodd"/><path fill="#000000" fill-opacity="0.0" d="m466.6121 265.66403l59.653534 0l0 42.015747l-59.653534 0z" fill-rule="evenodd"/><path fill="#000000" d="m493.61002 291.39655q-0.921875 0.765625 -1.765625 1.09375q-0.828125 0.3125 -1.796875 0.3125q-1.59375 0 -2.453125 -0.78125q-0.859375 -0.78125 -0.859375 -1.984375q0 -0.71875 0.328125 -1.296875q0.328125 -0.59375 0.84375 -0.9375q0.53125 -0.359375 1.1875 -0.546875q0.46875 -0.125 1.453125 -0.25q1.984375 -0.234375 2.921875 -0.5625q0.015625 -0.34375 0.015625 -0.421875q0 -1.0 -0.46875 -1.421875q-0.625 -0.546875 -1.875 -0.546875q-1.15625 0 -1.703125 0.40625q-0.546875 0.40625 -0.8125 1.421875l-1.609375 -0.21875q0.21875 -1.015625 0.71875 -1.640625q0.5 -0.640625 1.453125 -0.984375q0.953125 -0.34375 2.1875 -0.34375q1.25 0 2.015625 0.296875q0.78125 0.28125 1.140625 0.734375q0.375 0.4375 0.515625 1.109375q0.078125 0.421875 0.078125 1.515625l0 2.1875q0 2.28125 0.109375 2.890625q0.109375 0.59375 0.40625 1.15625l-1.703125 0q-0.265625 -0.515625 -0.328125 -1.1875zm-0.140625 -3.671875q-0.890625 0.375 -2.671875 0.625q-1.015625 0.140625 -1.4375 0.328125q-0.421875 0.1875 -0.65625 0.53125q-0.21875 0.34375 -0.21875 0.78125q0 0.65625 0.5 1.09375q0.5 0.4375 1.453125 0.4375q0.9375 0 1.671875 -0.40625q0.75 -0.421875 1.09375 -1.140625q0.265625 -0.5625 0.265625 -1.640625l0 -0.609375zm3.7507324 1.359375l1.71875 -0.140625q0.1875 1.25 0.875 1.890625q0.703125 0.625 1.6875 0.625q1.1875 0 2.0 -0.890625q0.828125 -0.890625 0.828125 -2.359375q0 -1.40625 -0.796875 -2.21875q-0.78125 -0.8125 -2.0625 -0.8125q-0.78125 0 -1.421875 0.359375q-0.640625 0.359375 -1.0 0.9375l-1.546875 -0.203125l1.296875 -6.859375l6.640625 0l0 1.5625l-5.328125 0l-0.71875 3.59375q1.203125 -0.84375 2.515625 -0.84375q1.75 0 2.953125 1.21875q1.203125 1.203125 1.203125 3.109375q0 1.8125 -1.046875 3.140625q-1.296875 1.625 -3.515625 1.625q-1.8125 0 -2.96875 -1.015625q-1.15625 -1.03125 -1.3125 -2.71875z" fill-rule="nonzero"/><path fill="#000000" fill-opacity="0.0" d="m307.2467 90.3609l-191.96849 171.62204" fill-rule="evenodd"/><path stroke="#000000" stroke-width="1.0" stroke-linejoin="round" stroke-linecap="butt" d="m307.2467 90.3609l-187.49542 167.62308" fill-rule="evenodd"/><path fill="#000000" stroke="#000000" stroke-width="1.0" stroke-linecap="butt" d="m118.650406 256.7526l-2.2823257 4.2559814l4.484062 -1.7932129z" fill-rule="evenodd"/><path fill="#000000" fill-opacity="0.0" d="m307.2467 90.3609l-95.96849 171.62204" fill-rule="evenodd"/><path stroke="#000000" stroke-width="1.0" stroke-linejoin="round" stroke-linecap="butt" d="m307.2467 90.3609l-93.040115 166.3852" fill-rule="evenodd"/><path fill="#000000" stroke="#000000" stroke-width="1.0" stroke-linecap="butt" d="m212.76494 255.93994l-0.7732239 4.767029l3.6565247 -3.1547241z" fill-rule="evenodd"/><path fill="#000000" fill-opacity="0.0" d="m307.2467 90.3609l0.03152466 171.62204" fill-rule="evenodd"/><path stroke="#000000" stroke-width="1.0" stroke-linejoin="round" stroke-linecap="butt" d="m307.2467 90.3609l0.030395508 165.62204" fill-rule="evenodd"/><path fill="#000000" stroke="#000000" stroke-width="1.0" stroke-linecap="butt" d="m305.6254 255.98325l1.6525574 4.537781l1.6508789 -4.538391z" fill-rule="evenodd"/><path fill="#000000" fill-opacity="0.0" d="m307.2467 90.3609l96.031525 171.62204" fill-rule="evenodd"/><path stroke="#000000" stroke-width="1.0" stroke-linejoin="round" stroke-linecap="butt" d="m307.2467 90.3609l93.101685 166.38602" fill-rule="evenodd"/><path fill="#000000" stroke="#000000" stroke-width="1.0" stroke-linecap="butt" d="m398.90695 257.55347l3.6574097 3.153717l-0.77456665 -4.7668304z" fill-rule="evenodd"/><path fill="#000000" fill-opacity="0.0" d="m307.2467 90.3609l189.19687 171.62204" fill-rule="evenodd"/><path stroke="#000000" stroke-width="1.0" stroke-linejoin="round" stroke-linecap="butt" d="m307.2467 90.3609l184.75284 167.59082" fill-rule="evenodd"/><path fill="#000000" stroke="#000000" stroke-width="1.0" stroke-linecap="butt" d="m490.8898 259.1751l4.470978 1.8256226l-2.2514954 -4.2724z" fill-rule="evenodd"/><path fill="#000000" fill-opacity="0.0" d="m106.52847 341.79004l-0.18897247 -34.11026" fill-rule="evenodd"/><path stroke="#000000" stroke-width="1.0" stroke-linejoin="round" stroke-linecap="butt" d="m106.52847 341.79004l-0.15573883 -28.110352" fill-rule="evenodd"/><path fill="#000000" stroke="#000000" stroke-width="1.0" stroke-linecap="butt" d="m108.024445 313.67053l-1.6768494 -4.5288696l-1.626564 4.54718z" fill-rule="evenodd"/><path fill="#000000" fill-opacity="0.0" d="m199.64325 341.79004l-0.1889801 -34.11026" fill-rule="evenodd"/><path stroke="#000000" stroke-width="1.0" stroke-linejoin="round" stroke-linecap="butt" d="m199.64325 341.79004l-0.1557312 -28.110352" fill-rule="evenodd"/><path fill="#000000" stroke="#000000" stroke-width="1.0" stroke-linecap="butt" d="m201.13922 313.67053l-1.6768494 -4.5288696l-1.6265717 4.54718z" fill-rule="evenodd"/><path fill="#000000" fill-opacity="0.0" d="m323.47934 341.79004l-0.18899536 -34.11026" fill-rule="evenodd"/><path stroke="#000000" stroke-width="1.0" stroke-linejoin="round" stroke-linecap="butt" d="m323.47934 341.79004l-0.1557312 -28.110352" fill-rule="evenodd"/><path fill="#000000" stroke="#000000" stroke-width="1.0" stroke-linecap="butt" d="m324.9753 313.67053l-1.6768494 -4.5288696l-1.6265869 4.54718z" fill-rule="evenodd"/><path fill="#000000" fill-opacity="0.0" d="m411.47934 341.79004l-0.18899536 -34.11026" fill-rule="evenodd"/><path stroke="#000000" stroke-width="1.0" stroke-linejoin="round" stroke-linecap="butt" d="m411.47934 341.79004l-0.1557312 -28.110352" fill-rule="evenodd"/><path fill="#000000" stroke="#000000" stroke-width="1.0" stroke-linecap="butt" d="m412.9753 313.67053l-1.6768494 -4.5288696l-1.6265869 4.54718z" fill-rule="evenodd"/><path fill="#000000" fill-opacity="0.0" d="m507.47934 341.79004l-0.18899536 -34.11026" fill-rule="evenodd"/><path stroke="#000000" stroke-width="1.0" stroke-linejoin="round" stroke-linecap="butt" d="m507.47934 341.79004l-0.1557312 -28.110352" fill-rule="evenodd"/><path fill="#000000" stroke="#000000" stroke-width="1.0" stroke-linecap="butt" d="m508.9753 313.67053l-1.6768494 -4.5288696l-1.6265869 4.54718z" fill-rule="evenodd"/><path fill="#000000" fill-opacity="0.0" d="m455.79266 528.79266l95.968506 0l0 42.015747l-95.968506 0z" fill-rule="evenodd"/><path stroke="#000000" stroke-width="1.0" stroke-linejoin="round" stroke-linecap="butt" d="m455.79266 528.79266l95.968506 0l0 42.015747l-95.968506 0z" fill-rule="evenodd"/><path fill="#000000" d="m472.46414 551.4158l1.65625 -0.140625q0.125 1.0 0.546875 1.640625q0.4375 0.640625 1.34375 1.046875q0.921875 0.390625 2.0625 0.390625q1.0 0 1.78125 -0.296875q0.78125 -0.296875 1.15625 -0.8125q0.375 -0.53125 0.375 -1.15625q0 -0.625 -0.375 -1.09375q-0.359375 -0.46875 -1.1875 -0.796875q-0.546875 -0.203125 -2.390625 -0.640625q-1.828125 -0.453125 -2.5625 -0.84375q-0.96875 -0.5 -1.4375 -1.234375q-0.46875 -0.75 -0.46875 -1.671875q0 -1.0 0.578125 -1.875q0.578125 -0.890625 1.671875 -1.34375q1.109375 -0.453125 2.453125 -0.453125q1.484375 0 2.609375 0.484375q1.140625 0.46875 1.75 1.40625q0.609375 0.921875 0.65625 2.09375l-1.6875 0.125q-0.140625 -1.265625 -0.9375 -1.90625q-0.78125 -0.65625 -2.3125 -0.65625q-1.609375 0 -2.34375 0.59375q-0.734375 0.59375 -0.734375 1.421875q0 0.71875 0.53125 1.171875q0.5 0.46875 2.65625 0.96875q2.15625 0.484375 2.953125 0.84375q1.171875 0.53125 1.71875 1.359375q0.5625 0.828125 0.5625 1.90625q0 1.0625 -0.609375 2.015625q-0.609375 0.9375 -1.75 1.46875q-1.140625 0.515625 -2.578125 0.515625q-1.8125 0 -3.046875 -0.53125q-1.21875 -0.53125 -1.921875 -1.59375q-0.6875 -1.0625 -0.71875 -2.40625zm16.412323 2.828125l0.234375 1.453125q-0.6875 0.140625 -1.234375 0.140625q-0.890625 0 -1.390625 -0.28125q-0.484375 -0.28125 -0.6875 -0.734375q-0.203125 -0.46875 -0.203125 -1.9375l0 -5.578125l-1.203125 0l0 -1.265625l1.203125 0l0 -2.390625l1.625 -0.984375l0 3.375l1.65625 0l0 1.265625l-1.65625 0l0 5.671875q0 0.6875 0.078125 0.890625q0.09375 0.203125 0.28125 0.328125q0.203125 0.109375 0.578125 0.109375q0.265625 0 0.71875 -0.0625zm7.9332886 1.46875l0 -1.421875q-1.125 1.640625 -3.0625 1.640625q-0.859375 0 -1.609375 -0.328125q-0.734375 -0.328125 -1.09375 -0.828125q-0.359375 -0.5 -0.5 -1.21875q-0.109375 -0.46875 -0.109375 -1.53125l0 -5.984375l1.640625 0l0 5.359375q0 1.28125 0.109375 1.734375q0.15625 0.640625 0.65625 1.015625q0.5 0.375 1.234375 0.375q0.734375 0 1.375 -0.375q0.65625 -0.390625 0.921875 -1.03125q0.265625 -0.65625 0.265625 -1.890625l0 -5.1875l1.640625 0l0 9.671875l-1.46875 0zm10.313232 0l0 -1.21875q-0.90625 1.4375 -2.703125 1.4375q-1.15625 0 -2.125 -0.640625q-0.96875 -0.640625 -1.5 -1.78125q-0.53125 -1.140625 -0.53125 -2.625q0 -1.453125 0.484375 -2.625q0.484375 -1.1875 1.4375 -1.8125q0.96875 -0.625 2.171875 -0.625q0.875 0 1.546875 0.375q0.6875 0.359375 1.109375 0.953125l0 -4.796875l1.640625 0l0 13.359375l-1.53125 0zm-5.171875 -4.828125q0 1.859375 0.78125 2.78125q0.78125 0.921875 1.84375 0.921875q1.078125 0 1.828125 -0.875q0.75 -0.890625 0.75 -2.6875q0 -1.984375 -0.765625 -2.90625q-0.765625 -0.9375 -1.890625 -0.9375q-1.078125 0 -1.8125 0.890625q-0.734375 0.890625 -0.734375 2.8125zm15.906982 1.71875l1.6875 0.203125q-0.40625 1.484375 -1.484375 2.3125q-1.078125 0.8125 -2.765625 0.8125q-2.125 0 -3.3750305 -1.296875q-1.234375 -1.3125 -1.234375 -3.671875q0 -2.453125 1.25 -3.796875q1.2656555 -1.34375 3.2656555 -1.34375q1.9375 0 3.15625 1.328125q1.234375 1.3125 1.234375 3.703125q0 0.15625 0 0.4375l-7.21875 0q0.09375 1.59375 0.90625 2.453125q0.8125 0.84375 2.015625 0.84375q0.90625 0 1.546875 -0.46875q0.640625 -0.484375 1.015625 -1.515625zm-5.390625 -2.65625l5.40625 0q-0.109375 -1.21875 -0.625 -1.828125q-0.78125 -0.953125 -2.03125 -0.953125q-1.125 0 -1.90625 0.765625q-0.765625 0.75 -0.84375 2.015625zm9.141296 5.765625l0 -9.671875l1.46875 0l0 1.375q1.0625 -1.59375 3.078125 -1.59375q0.875 0 1.609375 0.3125q0.734375 0.3125 1.09375 0.828125q0.375 0.5 0.515625 1.203125q0.09375 0.453125 0.09375 1.59375l0 5.953125l-1.640625 0l0 -5.890625q0 -1.0 -0.203125 -1.484375q-0.1875 -0.5 -0.671875 -0.796875q-0.484375 -0.296875 -1.140625 -0.296875q-1.046875 0 -1.8125 0.671875q-0.75 0.65625 -0.75 2.515625l0 5.28125l-1.640625 0zm13.953857 -1.46875l0.234375 1.453125q-0.6875 0.140625 -1.234375 0.140625q-0.890625 0 -1.390625 -0.28125q-0.484375 -0.28125 -0.6875 -0.734375q-0.203125 -0.46875 -0.203125 -1.9375l0 -5.578125l-1.203125 0l0 -1.265625l1.203125 0l0 -2.390625l1.625 -0.984375l0 3.375l1.65625 0l0 1.265625l-1.65625 0l0 5.671875q0 0.6875 0.078125 0.890625q0.09375 0.203125 0.28125 0.328125q0.203125 0.109375 0.578125 0.109375q0.265625 0 0.71875 -0.0625z" fill-rule="nonzero"/><path fill="#000000" fill-opacity="0.0" d="m480.34647 28.832022l95.968475 0l0 42.015747l-95.968475 0z" fill-rule="evenodd"/><path stroke="#000000" stroke-width="1.0" stroke-linejoin="round" stroke-linecap="butt" d="m480.34647 28.832022l95.968475 0l0 42.015747l-95.968475 0z" fill-rule="evenodd"/><path fill="#000000" d="m515.9746 51.064518l1.765625 0.453125q-0.5625 2.171875 -2.0 3.328125q-1.4375 1.140625 -3.53125 1.140625q-2.1562805 0 -3.5156555 -0.875q-1.34375 -0.890625 -2.0625 -2.546875q-0.703125 -1.671875 -0.703125 -3.59375q0 -2.078125 0.796875 -3.625q0.796875 -1.5625 2.265625 -2.359375q1.484375 -0.8125 3.2500305 -0.8125q2.0 0 3.359375 1.015625q1.375 1.015625 1.90625 2.875l-1.734375 0.40625q-0.46875 -1.453125 -1.359375 -2.109375q-0.875 -0.671875 -2.203125 -0.671875q-1.5469055 0 -2.5781555 0.734375q-1.03125 0.734375 -1.453125 1.984375q-0.421875 1.234375 -0.421875 2.5625q0 1.703125 0.5 2.96875q0.5 1.265625 1.546875 1.90625q1.046875 0.625 2.2656555 0.625q1.484375 0 2.515625 -0.859375q1.03125 -0.859375 1.390625 -2.546875zm3.6916504 4.6875l0 -13.359375l1.640625 0l0 13.359375l-1.640625 0zm10.504211 -1.1875q-0.921875 0.765625 -1.765625 1.09375q-0.828125 0.3125 -1.796875 0.3125q-1.59375 0 -2.453125 -0.78125q-0.859375 -0.78125 -0.859375 -1.984375q0 -0.71875 0.328125 -1.296875q0.328125 -0.59375 0.84375 -0.9375q0.53125 -0.359375 1.1875 -0.546875q0.46875 -0.125 1.453125 -0.25q1.984375 -0.234375 2.921875 -0.5625q0.015625 -0.34375 0.015625 -0.421875q0 -1.0 -0.46875 -1.421875q-0.625 -0.546875 -1.875 -0.546875q-1.15625 0 -1.703125 0.40625q-0.546875 0.40625 -0.8125 1.421875l-1.609375 -0.21875q0.21875 -1.015625 0.71875 -1.640625q0.5 -0.640625 1.453125 -0.984375q0.953125 -0.34375 2.1875 -0.34375q1.25 0 2.015625 0.296875q0.78125 0.28125 1.140625 0.734375q0.375 0.4375 0.515625 1.109375q0.078125 0.421875 0.078125 1.515625l0 2.1875q0 2.28125 0.109375 2.890625q0.109375 0.59375 0.40625 1.15625l-1.703125 0q-0.265625 -0.515625 -0.328125 -1.1875zm-0.140625 -3.671875q-0.890625 0.375 -2.671875 0.625q-1.015625 0.140625 -1.4375 0.328125q-0.421875 0.1875 -0.65625 0.53125q-0.21875 0.34375 -0.21875 0.78125q0 0.65625 0.5 1.09375q0.5 0.4375 1.453125 0.4375q0.9375 0 1.671875 -0.40625q0.75 -0.421875 1.09375 -1.140625q0.265625 -0.5625 0.265625 -1.640625l0 -0.609375zm3.5476074 1.96875l1.625 -0.25q0.125 0.96875 0.75 1.5q0.625 0.515625 1.75 0.515625q1.125 0 1.671875 -0.453125q0.546875 -0.46875 0.546875 -1.09375q0 -0.546875 -0.484375 -0.875q-0.328125 -0.21875 -1.671875 -0.546875q-1.8125 -0.46875 -2.515625 -0.796875q-0.6875 -0.328125 -1.046875 -0.90625q-0.359375 -0.59375 -0.359375 -1.3125q0 -0.640625 0.296875 -1.1875q0.296875 -0.5625 0.8125 -0.921875q0.375 -0.28125 1.03125 -0.46875q0.671875 -0.203125 1.421875 -0.203125q1.140625 0 2.0 0.328125q0.859375 0.328125 1.265625 0.890625q0.421875 0.5625 0.578125 1.5l-1.609375 0.21875q-0.109375 -0.75 -0.640625 -1.171875q-0.515625 -0.421875 -1.46875 -0.421875q-1.140625 0 -1.625 0.375q-0.46875 0.375 -0.46875 0.875q0 0.3125 0.1875 0.578125q0.203125 0.265625 0.640625 0.4375q0.234375 0.09375 1.4375 0.421875q1.75 0.453125 2.4375 0.75q0.6875 0.296875 1.078125 0.859375q0.390625 0.5625 0.390625 1.40625q0 0.828125 -0.484375 1.546875q-0.46875 0.71875 -1.375 1.125q-0.90625 0.390625 -2.046875 0.390625q-1.875 0 -2.875 -0.78125q-0.984375 -0.78125 -1.25 -2.328125zm9.328125 0l1.625 -0.25q0.125 0.96875 0.75 1.5q0.625 0.515625 1.75 0.515625q1.125 0 1.671875 -0.453125q0.546875 -0.46875 0.546875 -1.09375q0 -0.546875 -0.484375 -0.875q-0.328125 -0.21875 -1.671875 -0.546875q-1.8125 -0.46875 -2.515625 -0.796875q-0.6875 -0.328125 -1.046875 -0.90625q-0.359375 -0.59375 -0.359375 -1.3125q0 -0.640625 0.296875 -1.1875q0.296875 -0.5625 0.8125 -0.921875q0.375 -0.28125 1.03125 -0.46875q0.671875 -0.203125 1.421875 -0.203125q1.140625 0 2.0 0.328125q0.859375 0.328125 1.265625 0.890625q0.421875 0.5625 0.578125 1.5l-1.609375 0.21875q-0.109375 -0.75 -0.640625 -1.171875q-0.515625 -0.421875 -1.46875 -0.421875q-1.140625 0 -1.625 0.375q-0.46875 0.375 -0.46875 0.875q0 0.3125 0.1875 0.578125q0.203125 0.265625 0.640625 0.4375q0.234375 0.09375 1.4375 0.421875q1.75 0.453125 2.4375 0.75q0.6875 0.296875 1.078125 0.859375q0.390625 0.5625 0.390625 1.40625q0 0.828125 -0.484375 1.546875q-0.46875 0.71875 -1.375 1.125q-0.90625 0.390625 -2.046875 0.390625q-1.875 0 -2.875 -0.78125q-0.984375 -0.78125 -1.25 -2.328125z" fill-rule="nonzero"/><path fill="#ffffff" d="m259.47617 87.44095l0 0c0 -26.518368 21.497375 -48.01575 48.015747 -48.01575l0 0c12.734558 0 24.94754 5.0587883 33.95224 14.063488c9.0047 9.004696 14.063507 21.21769 14.063507 33.952263l0 0c0 26.518364 -21.497375 48.015747 -48.015747 48.015747l0 0c-26.518372 0 -48.015747 -21.497383 -48.015747 -48.015747z" fill-rule="evenodd"/><path stroke="#000000" stroke-width="1.0" stroke-linejoin="round" stroke-linecap="butt" d="m259.47617 87.44095l0 0c0 -26.518368 21.497375 -48.01575 48.015747 -48.01575l0 0c12.734558 0 24.94754 5.0587883 33.95224 14.063488c9.0047 9.004696 14.063507 21.21769 14.063507 33.952263l0 0c0 26.518364 -21.497375 48.015747 -48.015747 48.015747l0 0c-26.518372 0 -48.015747 -21.497383 -48.015747 -48.015747z" fill-rule="evenodd"/><path fill="#000000" fill-opacity="0.0" d="m264.34207 55.5503l86.48819 0l0 64.62992l-86.48819 0z" fill-rule="evenodd"/><path fill="#000000" d="m295.23007 77.7828l1.765625 0.453125q-0.5625 2.171875 -2.0 3.328125q-1.4375 1.140625 -3.53125 1.140625q-2.15625 0 -3.515625 -0.875q-1.34375 -0.890625 -2.0625 -2.546875q-0.703125 -1.671875 -0.703125 -3.59375q0 -2.078125 0.796875 -3.625q0.796875 -1.5625 2.265625 -2.359375q1.484375 -0.8125 3.25 -0.8125q2.0 0 3.359375 1.015625q1.375 1.015625 1.90625 2.875l-1.734375 0.40625q-0.46875 -1.453125 -1.359375 -2.109375q-0.875 -0.671875 -2.203125 -0.671875q-1.546875 0 -2.578125 0.734375q-1.03125 0.734375 -1.453125 1.984375q-0.421875 1.234375 -0.421875 2.5625q0 1.703125 0.5 2.96875q0.5 1.265625 1.546875 1.90625q1.046875 0.625 2.265625 0.625q1.484375 0 2.515625 -0.859375q1.03125 -0.859375 1.390625 -2.546875zm3.691681 4.6875l0 -13.359375l1.640625 0l0 13.359375l-1.640625 0zm10.504211 -1.1875q-0.921875 0.765625 -1.765625 1.09375q-0.828125 0.3125 -1.796875 0.3125q-1.59375 0 -2.453125 -0.78125q-0.859375 -0.78125 -0.859375 -1.984375q0 -0.71875 0.328125 -1.296875q0.328125 -0.59375 0.84375 -0.9375q0.53125 -0.359375 1.1875 -0.546875q0.46875 -0.125 1.453125 -0.25q1.984375 -0.234375 2.921875 -0.5625q0.015625 -0.34375 0.015625 -0.421875q0 -1.0 -0.46875 -1.421875q-0.625 -0.546875 -1.875 -0.546875q-1.15625 0 -1.703125 0.40625q-0.546875 0.40625 -0.8125 1.421875l-1.609375 -0.21875q0.21875 -1.015625 0.71875 -1.640625q0.5 -0.640625 1.453125 -0.984375q0.953125 -0.34375 2.1875 -0.34375q1.25 0 2.015625 0.296875q0.78125 0.28125 1.140625 0.734375q0.375 0.4375 0.515625 1.109375q0.078125 0.421875 0.078125 1.515625l0 2.1875q0 2.28125 0.109375 2.890625q0.109375 0.59375 0.40625 1.15625l-1.703125 0q-0.265625 -0.515625 -0.328125 -1.1875zm-0.140625 -3.671875q-0.890625 0.375 -2.671875 0.625q-1.015625 0.140625 -1.4375 0.328125q-0.421875 0.1875 -0.65625 0.53125q-0.21875 0.34375 -0.21875 0.78125q0 0.65625 0.5 1.09375q0.5 0.4375 1.453125 0.4375q0.9375 0 1.671875 -0.40625q0.75 -0.421875 1.09375 -1.140625q0.265625 -0.5625 0.265625 -1.640625l0 -0.609375zm3.547577 1.96875l1.625 -0.25q0.125 0.96875 0.75 1.5q0.625 0.515625 1.75 0.515625q1.125 0 1.671875 -0.453125q0.546875 -0.46875 0.546875 -1.09375q0 -0.546875 -0.484375 -0.875q-0.328125 -0.21875 -1.671875 -0.546875q-1.8125 -0.46875 -2.515625 -0.796875q-0.6875 -0.328125 -1.046875 -0.90625q-0.359375 -0.59375 -0.359375 -1.3125q0 -0.640625 0.296875 -1.1875q0.296875 -0.5625 0.8125 -0.921875q0.375 -0.28125 1.03125 -0.46875q0.671875 -0.203125 1.421875 -0.203125q1.140625 0 2.0 0.328125q0.859375 0.328125 1.265625 0.890625q0.421875 0.5625 0.578125 1.5l-1.609375 0.21875q-0.109375 -0.75 -0.640625 -1.171875q-0.515625 -0.421875 -1.46875 -0.421875q-1.140625 0 -1.625 0.375q-0.46875 0.375 -0.46875 0.875q0 0.3125 0.1875 0.578125q0.203125 0.265625 0.640625 0.4375q0.234375 0.09375 1.4375 0.421875q1.75 0.453125 2.4375 0.75q0.6875 0.296875 1.078125 0.859375q0.390625 0.5625 0.390625 1.40625q0 0.828125 -0.484375 1.546875q-0.46875 0.71875 -1.375 1.125q-0.90625 0.390625 -2.046875 0.390625q-1.875 0 -2.875 -0.78125q-0.984375 -0.78125 -1.25 -2.328125zm9.328125 0l1.625 -0.25q0.125 0.96875 0.75 1.5q0.625 0.515625 1.75 0.515625q1.125 0 1.671875 -0.453125q0.546875 -0.46875 0.546875 -1.09375q0 -0.546875 -0.484375 -0.875q-0.328125 -0.21875 -1.671875 -0.546875q-1.8125 -0.46875 -2.515625 -0.796875q-0.6875 -0.328125 -1.046875 -0.90625q-0.359375 -0.59375 -0.359375 -1.3125q0 -0.640625 0.296875 -1.1875q0.296875 -0.5625 0.8125 -0.921875q0.375 -0.28125 1.03125 -0.46875q0.671875 -0.203125 1.421875 -0.203125q1.140625 0 2.0 0.328125q0.859375 0.328125 1.265625 0.890625q0.421875 0.5625 0.578125 1.5l-1.609375 0.21875q-0.109375 -0.75 -0.640625 -1.171875q-0.515625 -0.421875 -1.46875 -0.421875q-1.140625 0 -1.625 0.375q-0.46875 0.375 -0.46875 0.875q0 0.3125 0.1875 0.578125q0.203125 0.265625 0.640625 0.4375q0.234375 0.09375 1.4375 0.421875q1.75 0.453125 2.4375 0.75q0.6875 0.296875 1.078125 0.859375q0.390625 0.5625 0.390625 1.40625q0 0.828125 -0.484375 1.546875q-0.46875 0.71875 -1.375 1.125q-0.90625 0.390625 -2.046875 0.390625q-1.875 0 -2.875 -0.78125q-0.984375 -0.78125 -1.25 -2.328125z" fill-rule="nonzero"/><path fill="#000000" d="m286.93585 100.1828l1.765625 0.453125q-0.5625 2.171875 -2.0 3.328125q-1.4375 1.140625 -3.53125 1.140625q-2.15625 0 -3.515625 -0.875q-1.34375 -0.890625 -2.0625 -2.546875q-0.703125 -1.671875 -0.703125 -3.59375q0 -2.078125 0.796875 -3.625q0.796875 -1.5625 2.265625 -2.359375q1.484375 -0.8125 3.25 -0.8125q2.0 0 3.359375 1.015625q1.375 1.015625 1.90625 2.875l-1.734375 0.40625q-0.46875 -1.453125 -1.359375 -2.109375q-0.875 -0.671875 -2.203125 -0.671875q-1.546875 0 -2.578125 0.734375q-1.03125 0.734375 -1.453125 1.984375q-0.421875 1.234375 -0.421875 2.5625q0 1.703125 0.5 2.96875q0.5 1.265625 1.546875 1.90625q1.046875 0.625 2.265625 0.625q1.484375 0 2.515625 -0.859375q1.03125 -0.859375 1.390625 -2.546875zm3.6917114 4.6875l0 -13.359375l1.640625 0l0 13.359375l-1.640625 0zm4.191681 -11.46875l0 -1.890625l1.640625 0l0 1.890625l-1.640625 0zm0 11.46875l0 -9.671875l1.640625 0l0 9.671875l-1.640625 0zm4.1448364 0l0 -9.671875l1.46875 0l0 1.359375q0.453125 -0.71875 1.203125 -1.140625q0.765625 -0.4375 1.71875 -0.4375q1.078125 0 1.765625 0.453125q0.6875 0.4375 0.96875 1.234375q1.15625 -1.6875 2.984375 -1.6875q1.453125 0 2.21875 0.796875q0.78125 0.796875 0.78125 2.453125l0 6.640625l-1.640625 0l0 -6.09375q0 -0.984375 -0.15625 -1.40625q-0.15625 -0.4375 -0.578125 -0.703125q-0.421875 -0.265625 -0.984375 -0.265625q-1.015625 0 -1.6875 0.6875q-0.671875 0.671875 -0.671875 2.15625l0 5.625l-1.640625 0l0 -6.28125q0 -1.09375 -0.40625 -1.640625q-0.40625 -0.546875 -1.3125 -0.546875q-0.6875 0 -1.28125 0.359375q-0.59375 0.359375 -0.859375 1.0625q-0.25 0.703125 -0.25 2.03125l0 5.015625l-1.640625 0zm21.853302 -1.1875q-0.921875 0.765625 -1.765625 1.09375q-0.828125 0.3125 -1.796875 0.3125q-1.59375 0 -2.453125 -0.78125q-0.859375 -0.78125 -0.859375 -1.984375q0 -0.71875 0.328125 -1.296875q0.328125 -0.59375 0.84375 -0.9375q0.53125 -0.359375 1.1875 -0.546875q0.46875 -0.125 1.453125 -0.25q1.984375 -0.234375 2.921875 -0.5625q0.015625 -0.34375 0.015625 -0.421875q0 -1.0 -0.46875 -1.421875q-0.625 -0.546875 -1.875 -0.546875q-1.15625 0 -1.703125 0.40625q-0.546875 0.40625 -0.8125 1.421875l-1.609375 -0.21875q0.21875 -1.015625 0.71875 -1.640625q0.5 -0.640625 1.453125 -0.984375q0.953125 -0.34375 2.1875 -0.34375q1.25 0 2.015625 0.296875q0.78125 0.28125 1.140625 0.734375q0.375 0.4375 0.515625 1.109375q0.078125 0.421875 0.078125 1.515625l0 2.1875q0 2.28125 0.109375 2.890625q0.109375 0.59375 0.40625 1.15625l-1.703125 0q-0.265625 -0.515625 -0.328125 -1.1875zm-0.140625 -3.671875q-0.890625 0.375 -2.671875 0.625q-1.015625 0.140625 -1.4375 0.328125q-0.421875 0.1875 -0.65625 0.53125q-0.21875 0.34375 -0.21875 0.78125q0 0.65625 0.5 1.09375q0.5 0.4375 1.453125 0.4375q0.9375 0 1.671875 -0.40625q0.75 -0.421875 1.09375 -1.140625q0.265625 -0.5625 0.265625 -1.640625l0 -0.609375zm7.781952 3.390625l0.234375 1.453125q-0.6875 0.140625 -1.234375 0.140625q-0.890625 0 -1.390625 -0.28125q-0.484375 -0.28125 -0.6875 -0.734375q-0.203125 -0.46875 -0.203125 -1.9375l0 -5.578125l-1.203125 0l0 -1.265625l1.203125 0l0 -2.390625l1.625 -0.984375l0 3.375l1.65625 0l0 1.265625l-1.65625 0l0 5.671875q0 0.6875 0.078125 0.890625q0.09375 0.203125 0.28125 0.328125q0.203125 0.109375 0.578125 0.109375q0.265625 0 0.71875 -0.0625zm8.230194 -1.640625l1.6875 0.203125q-0.40625 1.484375 -1.484375 2.3125q-1.078125 0.8125 -2.765625 0.8125q-2.125 0 -3.375 -1.296875q-1.234375 -1.3125 -1.234375 -3.671875q0 -2.453125 1.25 -3.796875q1.265625 -1.34375 3.265625 -1.34375q1.9375 0 3.15625 1.328125q1.234375 1.3125 1.234375 3.703125q0 0.15625 0 0.4375l-7.21875 0q0.09375 1.59375 0.90625 2.453125q0.8125 0.84375 2.015625 0.84375q0.90625 0 1.546875 -0.46875q0.640625 -0.484375 1.015625 -1.515625zm-5.390625 -2.65625l5.40625 0q-0.109375 -1.21875 -0.625 -1.828125q-0.78125 -0.953125 -2.03125 -0.953125q-1.125 0 -1.90625 0.765625q-0.765625 0.75 -0.84375 2.015625z" fill-rule="nonzero"/><path fill="#000000" fill-opacity="0.0" d="m304.47507 481.65878l191.9685 -171.62204" fill-rule="evenodd"/><path stroke="#000000" stroke-width="1.0" stroke-linejoin="round" stroke-linecap="butt" d="m304.47507 481.65878l187.49545 -167.62308" fill-rule="evenodd"/><path fill="#000000" stroke="#000000" stroke-width="1.0" stroke-linecap="butt" d="m493.07138 315.2671l2.282318 -4.2559814l-4.48407 1.7932129z" fill-rule="evenodd"/><path fill="#000000" fill-opacity="0.0" d="m304.47507 481.65878l95.968506 -171.62204" fill-rule="evenodd"/><path stroke="#000000" stroke-width="1.0" stroke-linejoin="round" stroke-linecap="butt" d="m304.47507 481.65878l93.04016 -166.3852" fill-rule="evenodd"/><path fill="#000000" stroke="#000000" stroke-width="1.0" stroke-linecap="butt" d="m398.95685 316.07974l0.7732239 -4.767029l-3.6565247 3.1547241z" fill-rule="evenodd"/><path fill="#000000" fill-opacity="0.0" d="m304.47507 481.65878l-0.03149414 -171.62204" fill-rule="evenodd"/><path stroke="#000000" stroke-width="1.0" stroke-linejoin="round" stroke-linecap="butt" d="m304.47507 481.65878l-0.030395508 -165.62204" fill-rule="evenodd"/><path fill="#000000" stroke="#000000" stroke-width="1.0" stroke-linecap="butt" d="m306.0964 316.03644l-1.6525574 -4.537781l-1.6509094 4.538391z" fill-rule="evenodd"/><path fill="#000000" fill-opacity="0.0" d="m304.47507 481.65878l-96.031494 -171.62204" fill-rule="evenodd"/><path stroke="#000000" stroke-width="1.0" stroke-linejoin="round" stroke-linecap="butt" d="m304.47507 481.65878l-93.10167 -166.38602" fill-rule="evenodd"/><path fill="#000000" stroke="#000000" stroke-width="1.0" stroke-linecap="butt" d="m212.81482 314.46622l-3.6573944 -3.153717l0.7745514 4.7668457z" fill-rule="evenodd"/><path fill="#000000" fill-opacity="0.0" d="m304.47507 481.65878l-189.19685 -171.62204" fill-rule="evenodd"/><path stroke="#000000" stroke-width="1.0" stroke-linejoin="round" stroke-linecap="butt" d="m304.47507 481.65878l-184.75284 -167.59082" fill-rule="evenodd"/><path fill="#000000" stroke="#000000" stroke-width="1.0" stroke-linecap="butt" d="m120.831985 312.84457l-4.4709854 -1.8256226l2.2514877 4.2724z" fill-rule="evenodd"/><path fill="#ffffff" d="m248.66737 498.93057l0 0c0 -29.527649 23.936905 -53.46457 53.464584 -53.46457l0 0c14.179657 0 27.778595 5.6328735 37.805145 15.659424c10.02655 10.02655 15.659424 23.625458 15.659424 37.805145l0 0c0 29.52768 -23.93692 53.46457 -53.46457 53.46457l0 0c-29.52768 0 -53.464584 -23.93689 -53.464584 -53.46457z" fill-rule="evenodd"/><path stroke="#000000" stroke-width="1.0" stroke-linejoin="round" stroke-linecap="butt" d="m248.66737 498.93057l0 0c0 -29.527649 23.936905 -53.46457 53.464584 -53.46457l0 0c14.179657 0 27.778595 5.6328735 37.805145 15.659424c10.02655 10.02655 15.659424 23.625458 15.659424 37.805145l0 0c0 29.52768 -23.93692 53.46457 -53.46457 53.46457l0 0c-29.52768 0 -53.464584 -23.93689 -53.464584 -53.46457z" fill-rule="evenodd"/><path fill="#000000" fill-opacity="0.0" d="m258.88785 469.9227l86.48819 0l0 64.62991l-86.48819 0z" fill-rule="evenodd"/><path fill="#000000" d="m270.81918 492.54584l1.65625 -0.140625q0.125 1.0 0.546875 1.640625q0.4375 0.640625 1.34375 1.046875q0.921875 0.390625 2.0625 0.390625q1.0 0 1.78125 -0.296875q0.78125 -0.296875 1.15625 -0.8125q0.375 -0.53125 0.375 -1.15625q0 -0.625 -0.375 -1.09375q-0.359375 -0.46875 -1.1875 -0.796875q-0.546875 -0.203125 -2.390625 -0.640625q-1.828125 -0.453125 -2.5625 -0.84375q-0.96875 -0.5 -1.4375 -1.234375q-0.46875 -0.75 -0.46875 -1.671875q0 -1.0 0.578125 -1.875q0.578125 -0.890625 1.671875 -1.34375q1.109375 -0.453125 2.453125 -0.453125q1.484375 0 2.609375 0.484375q1.140625 0.46875 1.75 1.40625q0.609375 0.921875 0.65625 2.09375l-1.6875 0.125q-0.140625 -1.265625 -0.9375 -1.90625q-0.78125 -0.65625 -2.3125 -0.65625q-1.609375 0 -2.34375 0.59375q-0.734375 0.59375 -0.734375 1.421875q0 0.71875 0.53125 1.171875q0.5 0.46875 2.65625 0.96875q2.15625 0.484375 2.953125 0.84375q1.171875 0.53125 1.71875 1.359375q0.5625 0.828125 0.5625 1.90625q0 1.0625 -0.609375 2.015625q-0.609375 0.9375 -1.75 1.46875q-1.140625 0.515625 -2.578125 0.515625q-1.8125 0 -3.046875 -0.53125q-1.21875 -0.53125 -1.921875 -1.59375q-0.6875 -1.0625 -0.71875 -2.40625zm16.412323 2.828125l0.234375 1.453125q-0.6875 0.140625 -1.234375 0.140625q-0.890625 0 -1.390625 -0.28125q-0.484375 -0.28125 -0.6875 -0.734375q-0.203125 -0.46875 -0.203125 -1.9375l0 -5.578125l-1.203125 0l0 -1.265625l1.203125 0l0 -2.390625l1.625 -0.984375l0 3.375l1.65625 0l0 1.265625l-1.65625 0l0 5.671875q0 0.6875 0.078125 0.890625q0.09375 0.203125 0.28125 0.328125q0.203125 0.109375 0.578125 0.109375q0.265625 0 0.71875 -0.0625zm7.9332886 1.46875l0 -1.421875q-1.125 1.640625 -3.0625 1.640625q-0.859375 0 -1.609375 -0.328125q-0.734375 -0.328125 -1.09375 -0.828125q-0.359375 -0.5 -0.5 -1.21875q-0.109375 -0.46875 -0.109375 -1.53125l0 -5.984375l1.640625 0l0 5.359375q0 1.28125 0.109375 1.734375q0.15625 0.640625 0.65625 1.015625q0.5 0.375 1.234375 0.375q0.734375 0 1.375 -0.375q0.65625 -0.390625 0.921875 -1.03125q0.265625 -0.65625 0.265625 -1.890625l0 -5.1875l1.640625 0l0 9.671875l-1.46875 0zm10.313232 0l0 -1.21875q-0.90625 1.4375 -2.703125 1.4375q-1.15625 0 -2.125 -0.640625q-0.96875 -0.640625 -1.5 -1.78125q-0.53125 -1.140625 -0.53125 -2.625q0 -1.453125 0.484375 -2.625q0.484375 -1.1875 1.4375 -1.8125q0.96875 -0.625 2.171875 -0.625q0.875 0 1.546875 0.375q0.6875 0.359375 1.109375 0.953125l0 -4.796875l1.640625 0l0 13.359375l-1.53125 0zm-5.171875 -4.828125q0 1.859375 0.78125 2.78125q0.78125 0.921875 1.84375 0.921875q1.078125 0 1.828125 -0.875q0.75 -0.890625 0.75 -2.6875q0 -1.984375 -0.765625 -2.90625q-0.765625 -0.9375 -1.890625 -0.9375q-1.078125 0 -1.8125 0.890625q-0.734375 0.890625 -0.734375 2.8125zm15.906952 1.71875l1.6875 0.203125q-0.40625 1.484375 -1.484375 2.3125q-1.078125 0.8125 -2.765625 0.8125q-2.125 0 -3.375 -1.296875q-1.234375 -1.3125 -1.234375 -3.671875q0 -2.453125 1.25 -3.796875q1.265625 -1.34375 3.265625 -1.34375q1.9375 0 3.15625 1.328125q1.234375 1.3125 1.234375 3.703125q0 0.15625 0 0.4375l-7.21875 0q0.09375 1.59375 0.90625 2.453125q0.8125 0.84375 2.015625 0.84375q0.90625 0 1.546875 -0.46875q0.640625 -0.484375 1.015625 -1.515625zm-5.390625 -2.65625l5.40625 0q-0.109375 -1.21875 -0.625 -1.828125q-0.78125 -0.953125 -2.03125 -0.953125q-1.125 0 -1.90625 0.765625q-0.765625 0.75 -0.84375 2.015625zm9.141357 5.765625l0 -9.671875l1.46875 0l0 1.375q1.0625 -1.59375 3.078125 -1.59375q0.875 0 1.609375 0.3125q0.734375 0.3125 1.09375 0.828125q0.375 0.5 0.515625 1.203125q0.09375 0.453125 0.09375 1.59375l0 5.953125l-1.640625 0l0 -5.890625q0 -1.0 -0.203125 -1.484375q-0.1875 -0.5 -0.671875 -0.796875q-0.484375 -0.296875 -1.140625 -0.296875q-1.046875 0 -1.8125 0.671875q-0.75 0.65625 -0.75 2.515625l0 5.28125l-1.640625 0zm13.953827 -1.46875l0.234375 1.453125q-0.6875 0.140625 -1.234375 0.140625q-0.890625 0 -1.390625 -0.28125q-0.484375 -0.28125 -0.6875 -0.734375q-0.203125 -0.46875 -0.203125 -1.9375l0 -5.578125l-1.203125 0l0 -1.265625l1.203125 0l0 -2.390625l1.625 -0.984375l0 3.375l1.65625 0l0 1.265625l-1.65625 0l0 5.671875q0 0.6875 0.078125 0.890625q0.09375 0.203125 0.28125 0.328125q0.203125 0.109375 0.578125 0.109375q0.265625 0 0.71875 -0.0625z" fill-rule="nonzero"/><path fill="#000000" d="m270.46796 519.2427l5.125 -13.3593445l1.90625 0l5.46875 13.3593445l-2.015625 0l-1.546875 -4.046875l-5.59375 0l-1.46875 4.046875l-1.875 0zm3.859375 -5.484375l4.53125 0l-1.40625 -3.7030945q-0.625 -1.6875 -0.9375 -2.765625q-0.265625 1.28125 -0.71875 2.546875l-1.46875 3.9218445zm13.427948 4.015625l0.234375 1.453125q-0.6875 0.140625 -1.234375 0.140625q-0.890625 0 -1.390625 -0.28125q-0.484375 -0.28125 -0.6875 -0.734375q-0.203125 -0.46875 -0.203125 -1.9375l0 -5.5780945l-1.203125 0l0 -1.265625l1.203125 0l0 -2.390625l1.625 -0.984375l0 3.375l1.65625 0l0 1.265625l-1.65625 0l0 5.6718445q0 0.6875 0.078125 0.890625q0.09375 0.203125 0.28125 0.328125q0.203125 0.109375 0.578125 0.109375q0.265625 0 0.71875 -0.0625zm5.183319 0l0.234375 1.453125q-0.6875 0.140625 -1.234375 0.140625q-0.890625 0 -1.390625 -0.28125q-0.484375 -0.28125 -0.6875 -0.734375q-0.203125 -0.46875 -0.203125 -1.9375l0 -5.5780945l-1.203125 0l0 -1.265625l1.203125 0l0 -2.390625l1.625 -0.984375l0 3.375l1.65625 0l0 1.265625l-1.65625 0l0 5.6718445q0 0.6875 0.078125 0.890625q0.09375 0.203125 0.28125 0.328125q0.203125 0.109375 0.578125 0.109375q0.265625 0 0.71875 -0.0625zm1.6051636 -9.9999695l0 -1.890625l1.640625 0l0 1.890625l-1.640625 0zm0 11.4687195l0 -9.6718445l1.640625 0l0 9.6718445l-1.640625 0zm7.7229614 -1.46875l0.234375 1.453125q-0.6875 0.140625 -1.234375 0.140625q-0.890625 0 -1.390625 -0.28125q-0.484375 -0.28125 -0.6875 -0.734375q-0.203125 -0.46875 -0.203125 -1.9375l0 -5.5780945l-1.203125 0l0 -1.265625l1.203125 0l0 -2.390625l1.625 -0.984375l0 3.375l1.65625 0l0 1.265625l-1.65625 0l0 5.6718445q0 0.6875 0.078125 0.890625q0.09375 0.203125 0.28125 0.328125q0.203125 0.109375 0.578125 0.109375q0.265625 0 0.71875 -0.0625zm7.9332886 1.46875l0 -1.421875q-1.125 1.640625 -3.0625 1.640625q-0.859375 0 -1.609375 -0.328125q-0.734375 -0.328125 -1.09375 -0.828125q-0.359375 -0.5 -0.5 -1.21875q-0.109375 -0.46875 -0.109375 -1.53125l0 -5.9843445l1.640625 0l0 5.3593445q0 1.28125 0.109375 1.734375q0.15625 0.640625 0.65625 1.015625q0.5 0.375 1.234375 0.375q0.734375 0 1.375 -0.375q0.65625 -0.390625 0.921875 -1.03125q0.265625 -0.65625 0.265625 -1.890625l0 -5.1874695l1.640625 0l0 9.6718445l-1.46875 0zm10.313232 0l0 -1.21875q-0.90625 1.4375 -2.703125 1.4375q-1.15625 0 -2.125 -0.640625q-0.96875 -0.640625 -1.5 -1.78125q-0.53125 -1.140625 -0.53125 -2.625q0 -1.453125 0.484375 -2.6249695q0.484375 -1.1875 1.4375 -1.8125q0.96875 -0.625 2.171875 -0.625q0.875 0 1.546875 0.375q0.6875 0.359375 1.109375 0.953125l0 -4.796875l1.640625 0l0 13.3593445l-1.53125 0zm-5.171875 -4.828125q0 1.859375 0.78125 2.78125q0.78125 0.921875 1.84375 0.921875q1.078125 0 1.828125 -0.875q0.75 -0.890625 0.75 -2.6875q0 -1.984375 -0.765625 -2.9062195q-0.765625 -0.9375 -1.890625 -0.9375q-1.078125 0 -1.8125 0.890625q-0.734375 0.8905945 -0.734375 2.8124695zm15.906952 1.71875l1.6875 0.203125q-0.40625 1.484375 -1.484375 2.3125q-1.078125 0.8125 -2.765625 0.8125q-2.125 0 -3.375 -1.296875q-1.234375 -1.3125 -1.234375 -3.671875q0 -2.453125 1.25 -3.7968445q1.265625 -1.34375 3.265625 -1.34375q1.9375 0 3.15625 1.328125q1.234375 1.3125 1.234375 3.7030945q0 0.15625 0 0.4375l-7.21875 0q0.09375 1.59375 0.90625 2.453125q0.8125 0.84375 2.015625 0.84375q0.90625 0 1.546875 -0.46875q0.640625 -0.484375 1.015625 -1.515625zm-5.390625 -2.65625l5.40625 0q-0.109375 -1.21875 -0.625 -1.8280945q-0.78125 -0.953125 -2.03125 -0.953125q-1.125 0 -1.90625 0.765625q-0.765625 0.7499695 -0.84375 2.0155945z" fill-rule="nonzero"/><path fill="#000000" fill-opacity="0.0" d="m211.27821 189.24672l38.362213 0l0 39.590546l-38.362213 0z" fill-rule="evenodd"/><path fill="#ffffff" d="m220.27821 198.24672l17.428879 0l0 20.0l-17.428879 0l0 -20.0z" fill-rule="nonzero"/><path fill="#000000" fill-opacity="0.0" d="m220.27821 198.97307l17.428879 0l0 18.925339l-17.428879 0l0 -18.925339z" fill-rule="nonzero"/><path fill="#232629" d="m222.99696 203.49672q-0.25 -0.015625 -0.59375 -0.015625q-0.328125 0 -0.46875 -0.015625q-0.40625 -0.015625 -0.625 -0.296875q-0.21875 -0.28125 -0.21875 -0.578125q0 -0.359375 0.28125 -0.65625q0.28125 -0.296875 0.8125 -0.296875q0.65625 0 1.109375 0.421875q0.46875 0.40625 0.8125 1.375q0.375 1.078125 0.78125 2.1875q0.40625 1.109375 0.78125 2.203125q0.484375 1.34375 0.890625 2.53125q0.421875 1.171875 0.734375 1.9375q0.328125 0.796875 0.546875 1.046875q0.234375 0.234375 0.78125 0.234375l0.359375 0l0 0.53125q-0.40625 0.109375 -0.734375 0.203125q-0.3125 0.09375 -0.671875 0.09375q-0.34375 0 -0.5625 -0.125q-0.21875 -0.125 -0.375 -0.375q-0.15625 -0.234375 -0.265625 -0.59375q-0.109375 -0.359375 -0.21875 -0.6875q-0.203125 -0.671875 -0.5 -1.859375q-0.296875 -1.1875 -0.765625 -2.765625q-0.546875 1.0625 -1.234375 2.546875q-0.6875 1.484375 -1.109375 2.359375q-0.203125 0.421875 -0.3125 0.71875q-0.09375 0.296875 -0.203125 0.625l-1.859375 0l3.984375 -8.03125q-0.28125 -0.953125 -0.5625 -1.578125q-0.265625 -0.625 -0.59375 -1.140625zm13.921677 10.75l-7.625 0l0 -1.109375q0.21875 -0.25 0.609375 -0.5625q0.390625 -0.3125 0.9375 -0.671875q0.3125 -0.21875 0.765625 -0.484375q0.46875 -0.265625 1.046875 -0.578125q0.640625 -0.328125 0.984375 -0.59375q0.34375 -0.265625 0.625 -0.640625q0.1875 -0.25 0.296875 -0.625q0.125 -0.390625 0.125 -1.09375q0 -1.015625 -0.546875 -1.484375q-0.546875 -0.46875 -1.40625 -0.46875q-0.515625 0 -1.0 0.203125q-0.46875 0.203125 -0.703125 0.5625q0.0625 0.265625 0.140625 0.625q0.09375 0.359375 0.09375 0.703125q0 0.3125 -0.265625 0.546875q-0.25 0.234375 -0.75 0.234375q-0.40625 0 -0.625 -0.28125q-0.21875 -0.28125 -0.21875 -0.75q0 -0.4375 0.234375 -0.875q0.25 -0.453125 0.703125 -0.828125q0.453125 -0.359375 1.109375 -0.578125q0.65625 -0.234375 1.421875 -0.234375q1.65625 0 2.640625 0.75q0.984375 0.734375 0.984375 1.984375q0 0.59375 -0.171875 1.078125q-0.171875 0.484375 -0.5625 0.859375q-0.4375 0.421875 -1.015625 0.71875q-0.578125 0.296875 -1.765625 0.828125q-0.703125 0.3125 -1.3125 0.65625q-0.609375 0.34375 -1.0 0.671875l6.25 0l0 1.4375z" fill-rule="nonzero"/><path fill="#000000" fill-opacity="0.0" d="m275.27823 202.3615l38.362183 0l0 39.590546l-38.362183 0z" fill-rule="evenodd"/><path fill="#ffffff" d="m284.27823 211.3615l17.315002 0l0 20.0l-17.315002 0l0 -20.0z" fill-rule="nonzero"/><path fill="#000000" fill-opacity="0.0" d="m284.27823 212.08784l17.315002 0l0 18.925339l-17.315002 0l0 -18.925339z" fill-rule="nonzero"/><path fill="#232629" d="m286.99698 216.6115q-0.25 -0.015625 -0.59375 -0.015625q-0.328125 0 -0.46875 -0.015625q-0.40625 -0.015625 -0.625 -0.296875q-0.21875 -0.28125 -0.21875 -0.578125q0 -0.359375 0.28125 -0.65625q0.28125 -0.296875 0.8125 -0.296875q0.65625 0 1.109375 0.421875q0.46875 0.40625 0.8125 1.375q0.375 1.078125 0.78125 2.1875q0.40625 1.109375 0.78125 2.203125q0.484375 1.34375 0.890625 2.53125q0.421875 1.171875 0.734375 1.9375q0.328125 0.796875 0.546875 1.046875q0.234375 0.234375 0.78125 0.234375l0.359375 0l0 0.53125q-0.40625 0.109375 -0.734375 0.203125q-0.3125 0.09375 -0.671875 0.09375q-0.34375 0 -0.5625 -0.125q-0.21875 -0.125 -0.375 -0.375q-0.15625 -0.234375 -0.265625 -0.59375q-0.109375 -0.359375 -0.21875 -0.6875q-0.203125 -0.671875 -0.5 -1.859375q-0.296875 -1.1875 -0.765625 -2.765625q-0.546875 1.0625 -1.234375 2.546875q-0.6875 1.484375 -1.109375 2.359375q-0.203125 0.421875 -0.3125 0.71875q-0.09375 0.296875 -0.203125 0.625l-1.859375 0l3.984375 -8.03125q-0.28125 -0.953125 -0.5625 -1.578125q-0.265625 -0.625 -0.59375 -1.140625zm9.359161 13.71875q-0.75 0 -1.390625 -0.1875q-0.640625 -0.1875 -1.09375 -0.515625q-0.453125 -0.328125 -0.703125 -0.75q-0.25 -0.421875 -0.25 -0.875q0 -0.390625 0.1875 -0.71875q0.203125 -0.328125 0.640625 -0.328125q0.484375 0 0.734375 0.25q0.265625 0.234375 0.265625 0.546875q0 0.265625 -0.09375 0.65625q-0.078125 0.40625 -0.125 0.578125q0.046875 0.0625 0.203125 0.1875q0.15625 0.125 0.375 0.21875q0.25 0.125 0.53125 0.1875q0.296875 0.078125 0.8125 0.078125q0.484375 0 0.9375 -0.171875q0.453125 -0.15625 0.796875 -0.5q0.359375 -0.375 0.546875 -0.875q0.203125 -0.5 0.203125 -1.3125q0 -0.453125 -0.09375 -0.875q-0.078125 -0.4375 -0.34375 -0.75q-0.25 -0.3125 -0.6875 -0.484375q-0.421875 -0.1875 -1.09375 -0.1875l-1.0625 0l0 -0.9375l0.703125 0q1.125 0 1.609375 -0.609375q0.5 -0.625 0.5 -1.859375q0 -1.015625 -0.484375 -1.53125q-0.46875 -0.515625 -1.34375 -0.515625q-0.421875 0 -0.703125 0.109375q-0.265625 0.09375 -0.4375 0.1875q-0.203125 0.109375 -0.34375 0.25q-0.125 0.140625 -0.1875 0.203125q0.0625 0.265625 0.140625 0.640625q0.078125 0.375 0.078125 0.71875q0 0.296875 -0.265625 0.546875q-0.25 0.234375 -0.75 0.234375q-0.421875 0 -0.625 -0.3125q-0.203125 -0.3125 -0.203125 -0.71875q0 -0.421875 0.234375 -0.859375q0.25 -0.4375 0.703125 -0.828125q0.46875 -0.375 1.125 -0.609375q0.671875 -0.234375 1.546875 -0.234375q1.0 0 1.65625 0.296875q0.65625 0.296875 1.03125 0.71875q0.359375 0.40625 0.5 0.875q0.140625 0.453125 0.140625 0.78125q0 0.40625 -0.125 0.8125q-0.109375 0.40625 -0.359375 0.765625q-0.296875 0.375 -0.765625 0.6875q-0.453125 0.3125 -1.171875 0.515625l0 0.125q0.453125 0.046875 0.96875 0.203125q0.53125 0.15625 0.9375 0.484375q0.4375 0.328125 0.703125 0.859375q0.28125 0.515625 0.28125 1.328125q0 1.5625 -1.25 2.53125q-1.25 0.96875 -3.140625 0.96875z" fill-rule="nonzero"/><path fill="#000000" fill-opacity="0.0" d="m339.27823 189.24672l38.362183 0l0 39.590546l-38.362183 0z" fill-rule="evenodd"/><path fill="#ffffff" d="m348.27823 198.24672l17.534607 0l0 20.0l-17.534607 0l0 -20.0z" fill-rule="nonzero"/><path fill="#000000" fill-opacity="0.0" d="m348.27823 198.97307l17.534607 0l0 18.925339l-17.534607 0l0 -18.925339z" fill-rule="nonzero"/><path fill="#232629" d="m350.99698 203.49672q-0.25 -0.015625 -0.59375 -0.015625q-0.328125 0 -0.46875 -0.015625q-0.40625 -0.015625 -0.625 -0.296875q-0.21875 -0.28125 -0.21875 -0.578125q0 -0.359375 0.28125 -0.65625q0.28125 -0.296875 0.8125 -0.296875q0.65625 0 1.109375 0.421875q0.46875 0.40625 0.8125 1.375q0.375 1.078125 0.78125 2.1875q0.40625 1.109375 0.78125 2.203125q0.484375 1.34375 0.890625 2.53125q0.421875 1.171875 0.734375 1.9375q0.328125 0.796875 0.546875 1.046875q0.234375 0.234375 0.78125 0.234375l0.359375 0l0 0.53125q-0.40625 0.109375 -0.734375 0.203125q-0.3125 0.09375 -0.671875 0.09375q-0.34375 0 -0.5625 -0.125q-0.21875 -0.125 -0.375 -0.375q-0.15625 -0.234375 -0.265625 -0.59375q-0.109375 -0.359375 -0.21875 -0.6875q-0.203125 -0.671875 -0.5 -1.859375q-0.296875 -1.1875 -0.765625 -2.765625q-0.546875 1.0625 -1.234375 2.546875q-0.6875 1.484375 -1.109375 2.359375q-0.203125 0.421875 -0.3125 0.71875q-0.09375 0.296875 -0.203125 0.625l-1.859375 0l3.984375 -8.03125q-0.28125 -0.953125 -0.5625 -1.578125q-0.265625 -0.625 -0.59375 -1.140625zm14.218536 10.015625l-1.640625 0l0 3.703125l-1.5625 0l0 -3.703125l-5.203125 0l0 -1.25l5.6875 -6.953125l1.078125 0l0 7.140625l1.640625 0l0 1.0625zm-3.203125 -1.0625l0 -5.328125l-4.390625 5.328125l4.390625 0z" fill-rule="nonzero"/><path fill="#000000" fill-opacity="0.0" d="m419.9339 173.9024l38.362213 0l0 39.590546l-38.362213 0z" fill-rule="evenodd"/><path fill="#ffffff" d="m428.9339 182.9024l16.924622 0l0 19.999985l-16.924622 0l0 -19.999985z" fill-rule="nonzero"/><path fill="#000000" fill-opacity="0.0" d="m428.9339 183.62875l16.924622 0l0 18.925339l-16.924622 0l0 -18.925339z" fill-rule="nonzero"/><path fill="#232629" d="m431.65265 188.1524q-0.25 -0.015625 -0.59375 -0.015625q-0.328125 0 -0.46875 -0.015625q-0.40625 -0.015625 -0.625 -0.296875q-0.21875 -0.28125 -0.21875 -0.578125q0 -0.359375 0.28125 -0.65625q0.28125 -0.296875 0.8125 -0.296875q0.65625 0 1.109375 0.421875q0.46875 0.40625 0.8125 1.375q0.375 1.078125 0.78125 2.1875q0.40625 1.109375 0.78125 2.203125q0.484375 1.34375 0.890625 2.53125q0.421875 1.171875 0.734375 1.9375q0.328125 0.796875 0.546875 1.046875q0.234375 0.234375 0.78125 0.234375l0.359375 0l0 0.53125q-0.40625 0.109375 -0.734375 0.203125q-0.3125 0.09375 -0.671875 0.09375q-0.34375 0 -0.5625 -0.125q-0.21875 -0.125 -0.375 -0.375q-0.15625 -0.234375 -0.265625 -0.59375q-0.109375 -0.359375 -0.21875 -0.6875q-0.203125 -0.671875 -0.5 -1.859375q-0.296875 -1.1875 -0.765625 -2.765625q-0.546875 1.0625 -1.234375 2.546875q-0.6875 1.484375 -1.109375 2.359375q-0.203125 0.421875 -0.3125 0.71875q-0.09375 0.296875 -0.203125 0.625l-1.859375 0l3.984375 -8.03125q-0.28125 -0.953125 -0.5625 -1.578125q-0.265625 -0.625 -0.59375 -1.140625zm12.265411 6.9375q0.53125 0.421875 0.875 1.09375q0.359375 0.65625 0.359375 1.65625q0 1.75 -1.203125 2.890625q-1.1875 1.140625 -3.015625 1.140625q-1.421875 0 -2.40625 -0.671875q-0.984375 -0.671875 -0.984375 -1.578125q0 -0.40625 0.203125 -0.71875q0.203125 -0.3125 0.625 -0.3125q0.484375 0 0.734375 0.265625q0.265625 0.25 0.265625 0.546875q0 0.265625 -0.09375 0.65625q-0.09375 0.390625 -0.140625 0.578125q0.0625 0.0625 0.203125 0.15625q0.15625 0.09375 0.359375 0.1875q0.21875 0.078125 0.515625 0.140625q0.3125 0.078125 0.71875 0.078125q0.515625 0 0.96875 -0.21875q0.46875 -0.203125 0.796875 -0.609375q0.34375 -0.453125 0.515625 -1.046875q0.171875 -0.578125 0.171875 -1.46875q0 -1.15625 -0.640625 -1.90625q-0.625 -0.75 -1.671875 -0.75q-0.65625 0 -1.21875 0.25q-0.5625 0.234375 -1.0 0.8125l-0.546875 -0.21875l0.6875 -5.875l5.828125 0l0 1.453125l-5.171875 0l-0.421875 3.453125q0.359375 -0.265625 0.953125 -0.515625q0.609375 -0.265625 1.328125 -0.265625q0.59375 0 1.21875 0.1875q0.640625 0.1875 1.1875 0.609375z" fill-rule="nonzero"/><path fill="#000000" fill-opacity="0.0" d="m166.45862 170.06631l38.362198 0l0 39.59056l-38.362198 0z" fill-rule="evenodd"/><path fill="#ffffff" d="m175.45862 179.06631l7.1569824 0l0 20.0l-7.1569824 0l0 -20.0z" fill-rule="nonzero"/><path fill="#000000" fill-opacity="0.0" d="m175.45862 179.79266l7.1569824 0l0 18.925339l-7.1569824 0l0 -18.925339z" fill-rule="nonzero"/><path fill="#232629" d="m182.03674 195.06631l-5.484375 0l0 -0.578125q0.25 -0.015625 0.765625 -0.0625q0.515625 -0.0625 0.703125 -0.109375q0.265625 -0.09375 0.390625 -0.265625q0.140625 -0.1875 0.140625 -0.546875l0 -5.71875l-2.03125 0l0 -0.6875l0.453125 0q0.875 0 1.5625 -0.3125q0.703125 -0.328125 1.0 -0.703125l0.671875 0q-0.015625 0.53125 -0.046875 1.234375q-0.015625 0.703125 -0.015625 1.265625l0 4.828125q0 0.28125 0.125 0.515625q0.125 0.21875 0.359375 0.3125q0.21875 0.09375 0.6875 0.171875q0.484375 0.078125 0.71875 0.078125l0 0.578125z" fill-rule="nonzero"/><path fill="#000000" fill-opacity="0.0" d="m212.55692 355.96802l38.362198 0l0 39.590546l-38.362198 0z" fill-rule="evenodd"/><path fill="#ffffff" d="m221.55692 364.96802l17.428879 0l0 20.0l-17.428879 0l0 -20.0z" fill-rule="nonzero"/><path fill="#000000" fill-opacity="0.0" d="m221.55692 365.69437l17.428879 0l0 18.925354l-17.428879 0l0 -18.925354z" fill-rule="nonzero"/><path fill="#232629" d="m224.27567 370.21802q-0.25 -0.015625 -0.59375 -0.015625q-0.328125 0 -0.46875 -0.015625q-0.40625 -0.015625 -0.625 -0.296875q-0.21875 -0.28125 -0.21875 -0.578125q0 -0.359375 0.28125 -0.65625q0.28125 -0.296875 0.8125 -0.296875q0.65625 0 1.109375 0.421875q0.46875 0.40625 0.8125 1.375q0.375 1.078125 0.78125 2.1875q0.40625 1.109375 0.78125 2.203125q0.484375 1.34375 0.890625 2.53125q0.421875 1.171875 0.734375 1.9375q0.328125 0.796875 0.546875 1.046875q0.234375 0.234375 0.78125 0.234375l0.359375 0l0 0.53125q-0.40625 0.109375 -0.734375 0.203125q-0.3125 0.09375 -0.671875 0.09375q-0.34375 0 -0.5625 -0.125q-0.21875 -0.125 -0.375 -0.375q-0.15625 -0.234375 -0.265625 -0.59375q-0.109375 -0.359375 -0.21875 -0.6875q-0.203125 -0.671875 -0.5 -1.859375q-0.296875 -1.1875 -0.765625 -2.765625q-0.546875 1.0625 -1.234375 2.546875q-0.6875 1.484375 -1.109375 2.359375q-0.203125 0.421875 -0.3125 0.71875q-0.09375 0.296875 -0.203125 0.625l-1.859375 0l3.984375 -8.03125q-0.28125 -0.953125 -0.5625 -1.578125q-0.265625 -0.625 -0.59375 -1.140625zm13.921677 10.75l-7.625 0l0 -1.109375q0.21875 -0.25 0.609375 -0.5625q0.390625 -0.3125 0.9375 -0.671875q0.3125 -0.21875 0.765625 -0.484375q0.46875 -0.265625 1.046875 -0.578125q0.640625 -0.328125 0.984375 -0.59375q0.34375 -0.265625 0.625 -0.640625q0.1875 -0.25 0.296875 -0.625q0.125 -0.390625 0.125 -1.09375q0 -1.015625 -0.546875 -1.484375q-0.546875 -0.46875 -1.40625 -0.46875q-0.515625 0 -1.0 0.203125q-0.46875 0.203125 -0.703125 0.5625q0.0625 0.265625 0.140625 0.625q0.09375 0.359375 0.09375 0.703125q0 0.3125 -0.265625 0.546875q-0.25 0.234375 -0.75 0.234375q-0.40625 0 -0.625 -0.28125q-0.21875 -0.28125 -0.21875 -0.75q0 -0.4375 0.234375 -0.875q0.25 -0.453125 0.703125 -0.828125q0.453125 -0.359375 1.109375 -0.578125q0.65625 -0.234375 1.421875 -0.234375q1.65625 0 2.640625 0.75q0.984375 0.734375 0.984375 1.984375q0 0.59375 -0.171875 1.078125q-0.171875 0.484375 -0.5625 0.859375q-0.4375 0.421875 -1.015625 0.71875q-0.578125 0.296875 -1.765625 0.828125q-0.703125 0.3125 -1.3125 0.65625q-0.609375 0.34375 -1.0 0.671875l6.25 0l0 1.4375z" fill-rule="nonzero"/><path fill="#000000" fill-opacity="0.0" d="m275.27823 341.2467l38.362183 0l0 39.590576l-38.362183 0z" fill-rule="evenodd"/><path fill="#ffffff" d="m284.27823 350.24673l17.315002 0l0 19.99997l-17.315002 0l0 -19.99997z" fill-rule="nonzero"/><path fill="#000000" fill-opacity="0.0" d="m284.27823 350.97305l17.315002 0l0 18.925354l-17.315002 0l0 -18.925354z" fill-rule="nonzero"/><path fill="#232629" d="m286.99698 355.4967q-0.25 -0.015625 -0.59375 -0.015625q-0.328125 0 -0.46875 -0.015625q-0.40625 -0.015625 -0.625 -0.296875q-0.21875 -0.28125 -0.21875 -0.578125q0 -0.359375 0.28125 -0.65625q0.28125 -0.296875 0.8125 -0.296875q0.65625 0 1.109375 0.421875q0.46875 0.40625 0.8125 1.375q0.375 1.078125 0.78125 2.1875q0.40625 1.109375 0.78125 2.203125q0.484375 1.34375 0.890625 2.53125q0.421875 1.171875 0.734375 1.9375q0.328125 0.796875 0.546875 1.046875q0.234375 0.234375 0.78125 0.234375l0.359375 0l0 0.53125q-0.40625 0.109375 -0.734375 0.203125q-0.3125 0.09375 -0.671875 0.09375q-0.34375 0 -0.5625 -0.125q-0.21875 -0.125 -0.375 -0.375q-0.15625 -0.234375 -0.265625 -0.59375q-0.109375 -0.359375 -0.21875 -0.6875q-0.203125 -0.671875 -0.5 -1.859375q-0.296875 -1.1875 -0.765625 -2.765625q-0.546875 1.0625 -1.234375 2.546875q-0.6875 1.484375 -1.109375 2.359375q-0.203125 0.421875 -0.3125 0.71875q-0.09375 0.296875 -0.203125 0.625l-1.859375 0l3.984375 -8.03125q-0.28125 -0.953125 -0.5625 -1.578125q-0.265625 -0.625 -0.59375 -1.140625zm9.359161 13.71875q-0.75 0 -1.390625 -0.1875q-0.640625 -0.1875 -1.09375 -0.515625q-0.453125 -0.328125 -0.703125 -0.75q-0.25 -0.421875 -0.25 -0.875q0 -0.390625 0.1875 -0.71875q0.203125 -0.328125 0.640625 -0.328125q0.484375 0 0.734375 0.25q0.265625 0.234375 0.265625 0.546875q0 0.265625 -0.09375 0.65625q-0.078125 0.40625 -0.125 0.578125q0.046875 0.0625 0.203125 0.1875q0.15625 0.125 0.375 0.21875q0.25 0.125 0.53125 0.1875q0.296875 0.078125 0.8125 0.078125q0.484375 0 0.9375 -0.171875q0.453125 -0.15625 0.796875 -0.5q0.359375 -0.375 0.546875 -0.875q0.203125 -0.5 0.203125 -1.3125q0 -0.453125 -0.09375 -0.875q-0.078125 -0.4375 -0.34375 -0.75q-0.25 -0.3125 -0.6875 -0.484375q-0.421875 -0.1875 -1.09375 -0.1875l-1.0625 0l0 -0.9375l0.703125 0q1.125 0 1.609375 -0.609375q0.5 -0.625 0.5 -1.859375q0 -1.015625 -0.484375 -1.53125q-0.46875 -0.515625 -1.34375 -0.515625q-0.421875 0 -0.703125 0.109375q-0.265625 0.09375 -0.4375 0.1875q-0.203125 0.109375 -0.34375 0.25q-0.125 0.140625 -0.1875 0.203125q0.0625 0.265625 0.140625 0.640625q0.078125 0.375 0.078125 0.71875q0 0.296875 -0.265625 0.546875q-0.25 0.234375 -0.75 0.234375q-0.421875 0 -0.625 -0.3125q-0.203125 -0.3125 -0.203125 -0.71875q0 -0.421875 0.234375 -0.859375q0.25 -0.4375 0.703125 -0.828125q0.46875 -0.375 1.125 -0.609375q0.671875 -0.234375 1.546875 -0.234375q1.0 0 1.65625 0.296875q0.65625 0.296875 1.03125 0.71875q0.359375 0.40625 0.5 0.875q0.140625 0.453125 0.140625 0.78125q0 0.40625 -0.125 0.8125q-0.109375 0.40625 -0.359375 0.765625q-0.296875 0.375 -0.765625 0.6875q-0.453125 0.3125 -1.171875 0.515625l0 0.125q0.453125 0.046875 0.96875 0.203125q0.53125 0.15625 0.9375 0.484375q0.4375 0.328125 0.703125 0.859375q0.28125 0.515625 0.28125 1.328125q0 1.5625 -1.25 2.53125q-1.25 0.96875 -3.140625 0.96875z" fill-rule="nonzero"/><path fill="#000000" fill-opacity="0.0" d="m336.72083 339.96802l38.362213 0l0 39.590546l-38.362213 0z" fill-rule="evenodd"/><path fill="#ffffff" d="m345.72083 348.96802l17.534607 0l0 20.0l-17.534607 0l0 -20.0z" fill-rule="nonzero"/><path fill="#000000" fill-opacity="0.0" d="m345.72083 349.69437l17.534607 0l0 18.925354l-17.534607 0l0 -18.925354z" fill-rule="nonzero"/><path fill="#232629" d="m348.43958 354.21802q-0.25 -0.015625 -0.59375 -0.015625q-0.328125 0 -0.46875 -0.015625q-0.40625 -0.015625 -0.625 -0.296875q-0.21875 -0.28125 -0.21875 -0.578125q0 -0.359375 0.28125 -0.65625q0.28125 -0.296875 0.8125 -0.296875q0.65625 0 1.109375 0.421875q0.46875 0.40625 0.8125 1.375q0.375 1.078125 0.78125 2.1875q0.40625 1.109375 0.78125 2.203125q0.484375 1.34375 0.890625 2.53125q0.421875 1.171875 0.734375 1.9375q0.328125 0.796875 0.546875 1.046875q0.234375 0.234375 0.78125 0.234375l0.359375 0l0 0.53125q-0.40625 0.109375 -0.734375 0.203125q-0.3125 0.09375 -0.671875 0.09375q-0.34375 0 -0.5625 -0.125q-0.21875 -0.125 -0.375 -0.375q-0.15625 -0.234375 -0.265625 -0.59375q-0.109375 -0.359375 -0.21875 -0.6875q-0.203125 -0.671875 -0.5 -1.859375q-0.296875 -1.1875 -0.765625 -2.765625q-0.546875 1.0625 -1.234375 2.546875q-0.6875 1.484375 -1.109375 2.359375q-0.203125 0.421875 -0.3125 0.71875q-0.09375 0.296875 -0.203125 0.625l-1.859375 0l3.984375 -8.03125q-0.28125 -0.953125 -0.5625 -1.578125q-0.265625 -0.625 -0.59375 -1.140625zm14.218567 10.015625l-1.640625 0l0 3.703125l-1.5625 0l0 -3.703125l-5.203125 0l0 -1.25l5.6875 -6.953125l1.078125 0l0 7.140625l1.640625 0l0 1.0625zm-3.203125 -1.0625l0 -5.328125l-4.390625 5.328125l4.390625 0z" fill-rule="nonzero"/><path fill="#000000" fill-opacity="0.0" d="m416.39297 365.57455l38.362213 0l0 39.590546l-38.362213 0z" fill-rule="evenodd"/><path fill="#ffffff" d="m425.39297 374.57455l16.924652 0l0 20.0l-16.924652 0l0 -20.0z" fill-rule="nonzero"/><path fill="#000000" fill-opacity="0.0" d="m425.39297 375.3009l16.924652 0l0 18.925354l-16.924652 0l0 -18.925354z" fill-rule="nonzero"/><path fill="#232629" d="m428.11172 379.82455q-0.25 -0.015625 -0.59375 -0.015625q-0.328125 0 -0.46875 -0.015625q-0.40625 -0.015625 -0.625 -0.296875q-0.21875 -0.28125 -0.21875 -0.578125q0 -0.359375 0.28125 -0.65625q0.28125 -0.296875 0.8125 -0.296875q0.65625 0 1.109375 0.421875q0.46875 0.40625 0.8125 1.375q0.375 1.078125 0.78125 2.1875q0.40625 1.109375 0.78125 2.203125q0.484375 1.34375 0.890625 2.53125q0.421875 1.171875 0.734375 1.9375q0.328125 0.796875 0.546875 1.046875q0.234375 0.234375 0.78125 0.234375l0.359375 0l0 0.53125q-0.40625 0.109375 -0.734375 0.203125q-0.3125 0.09375 -0.671875 0.09375q-0.34375 0 -0.5625 -0.125q-0.21875 -0.125 -0.375 -0.375q-0.15625 -0.234375 -0.265625 -0.59375q-0.109375 -0.359375 -0.21875 -0.6875q-0.203125 -0.671875 -0.5 -1.859375q-0.296875 -1.1875 -0.765625 -2.765625q-0.546875 1.0625 -1.234375 2.546875q-0.6875 1.484375 -1.109375 2.359375q-0.203125 0.421875 -0.3125 0.71875q-0.09375 0.296875 -0.203125 0.625l-1.859375 0l3.984375 -8.03125q-0.28125 -0.953125 -0.5625 -1.578125q-0.265625 -0.625 -0.59375 -1.140625zm12.265442 6.9375q0.53125 0.421875 0.875 1.09375q0.359375 0.65625 0.359375 1.65625q0 1.75 -1.203125 2.890625q-1.1875 1.140625 -3.015625 1.140625q-1.421875 0 -2.40625 -0.671875q-0.984375 -0.671875 -0.984375 -1.578125q0 -0.40625 0.203125 -0.71875q0.203125 -0.3125 0.625 -0.3125q0.484375 0 0.734375 0.265625q0.265625 0.25 0.265625 0.546875q0 0.265625 -0.09375 0.65625q-0.09375 0.390625 -0.140625 0.578125q0.0625 0.0625 0.203125 0.15625q0.15625 0.09375 0.359375 0.1875q0.21875 0.078125 0.515625 0.140625q0.3125 0.078125 0.71875 0.078125q0.515625 0 0.96875 -0.21875q0.46875 -0.203125 0.796875 -0.609375q0.34375 -0.453125 0.515625 -1.046875q0.171875 -0.578125 0.171875 -1.46875q0 -1.15625 -0.640625 -1.90625q-0.625 -0.75 -1.671875 -0.75q-0.65625 0 -1.21875 0.25q-0.5625 0.234375 -1.0 0.8125l-0.546875 -0.21875l0.6875 -5.875l5.828125 0l0 1.453125l-5.171875 0l-0.421875 3.453125q0.359375 -0.265625 0.953125 -0.515625q0.609375 -0.265625 1.328125 -0.265625q0.59375 0 1.21875 0.1875q0.640625 0.1875 1.1875 0.609375z" fill-rule="nonzero"/><path fill="#000000" fill-opacity="0.0" d="m173.8356 374.52542l38.362198 0l0 39.590546l-38.362198 0z" fill-rule="evenodd"/><path fill="#ffffff" d="m182.8356 383.52542l7.1569824 0l0 20.0l-7.1569824 0l0 -20.0z" fill-rule="nonzero"/><path fill="#000000" fill-opacity="0.0" d="m182.8356 384.25177l7.1569824 0l0 18.925323l-7.1569824 0l0 -18.925323z" fill-rule="nonzero"/><path fill="#232629" d="m189.41373 399.52542l-5.484375 0l0 -0.578125q0.25 -0.015625 0.765625 -0.0625q0.515625 -0.0625 0.703125 -0.109375q0.265625 -0.09375 0.390625 -0.265625q0.140625 -0.1875 0.140625 -0.546875l0 -5.71875l-2.03125 0l0 -0.6875l0.453125 0q0.875 0 1.5625 -0.3125q0.703125 -0.328125 1.0 -0.703125l0.671875 0q-0.015625 0.53125 -0.046875 1.234375q-0.015625 0.703125 -0.015625 1.265625l0 4.828125q0 0.28125 0.125 0.515625q0.125 0.21875 0.359375 0.3125q0.21875 0.09375 0.6875 0.171875q0.484375 0.078125 0.71875 0.078125l0 0.578125z" fill-rule="nonzero"/></g></svg>